<svg data-v-423bf9ae="" xmlns="http://www.w3.org/2000/svg" viewBox="0 0 360.27860042399107 163" class="iconAbove"><!----><!----><!----><g data-v-423bf9ae="" id="ed82049f-7d38-44fd-bcb1-19dde45f7dc5" fill="black" transform="matrix(5.571030897189742,0,0,5.571030897189742,-3.8997250631253166,66.11977848234359)"><path d="M9.52 9.97L9.52 9.97Q10.50 9.97 11.06 10.39L11.06 10.39L11.06 10.39Q11.62 10.82 11.62 11.58L11.62 11.58L11.62 17.18L8.82 17.18L8.82 12.28L8.11 12.28L8.11 12.28Q7.81 12.28 7.69 12.37L7.69 12.37L7.69 12.37Q7.56 12.46 7.56 12.67L7.56 12.67L7.56 17.18L4.76 17.18L4.76 12.28L4.05 12.28L4.05 12.28Q3.75 12.28 3.63 12.37L3.63 12.37L3.63 12.37Q3.50 12.46 3.50 12.67L3.50 12.67L3.50 17.18L0.70 17.18L0.70 10.18L2.10 10.18L2.80 10.88L2.80 10.88Q4.06 9.97 5.46 9.97L5.46 9.97L5.46 9.97Q6.08 9.97 6.53 10.14L6.53 10.14L6.53 10.14Q6.99 10.30 7.24 10.63L7.24 10.63L7.24 10.63Q8.32 9.97 9.52 9.97L9.52 9.97ZM16.38 17.39L16.38 17.39Q14.48 17.39 13.57 16.48L13.57 16.48L13.57 16.48Q12.67 15.58 12.67 13.68L12.67 13.68L12.67 13.68Q12.67 11.76 13.57 10.86L13.57 10.86L13.57 10.86Q14.46 9.97 16.38 9.97L16.38 9.97L16.38 9.97Q18.30 9.97 19.19 10.86L19.19 10.86L19.19 10.86Q20.09 11.76 20.09 13.68L20.09 13.68L20.09 13.68Q20.09 15.60 19.19 16.49L19.19 16.49L19.19 16.49Q18.30 17.39 16.38 17.39L16.38 17.39ZM15.68 15.29L16.53 15.29L16.53 15.29Q16.84 15.29 16.96 15.20L16.96 15.20L16.96 15.20Q17.08 15.12 17.08 14.90L17.08 14.90L17.08 12.07L16.23 12.07L16.23 12.07Q15.92 12.07 15.80 12.15L15.80 12.15L15.80 12.15Q15.68 12.24 15.68 12.46L15.68 12.46L15.68 15.29ZM20.55 10.18L23.28 10.18L24.18 14.73L24.32 14.73L25.21 10.18L27.94 10.18L26.35 17.18L22.15 17.18L20.55 10.18ZM28.60 17.18L28.60 17.18ZM28.69 10.53L31.49 10.18L31.49 17.18L28.69 17.18L28.69 10.53ZM30.09 9.59L30.09 9.59Q29.50 9.59 29.18 9.46L29.18 9.46L29.18 9.46Q28.87 9.34 28.73 9.02L28.73 9.02L28.73 9.02Q28.60 8.71 28.60 8.12L28.60 8.12L28.60 8.12Q28.60 7.27 28.92 6.94L28.92 6.94L28.92 6.94Q29.23 6.62 30.09 6.62L30.09 6.62L30.09 6.62Q30.93 6.62 31.24 6.94L31.24 6.94L31.24 6.94Q31.56 7.27 31.56 8.12L31.56 8.12L31.56 8.12Q31.56 8.69 31.42 9.01L31.42 9.01L31.42 9.01Q31.29 9.32 30.98 9.46L30.98 9.46L30.98 9.46Q30.67 9.59 30.09 9.59L30.09 9.59ZM36.60 15.34L36.60 15.34Q37.76 15.34 39.09 14.98L39.09 14.98L39.42 16.91L39.42 16.91Q37.98 17.39 36.32 17.39L36.32 17.39L36.32 17.39Q34.41 17.39 33.51 16.48L33.51 16.48L33.51 16.48Q32.61 15.58 32.61 13.68L32.61 13.68L32.61 13.68Q32.61 11.76 33.50 10.86L33.50 10.86L33.50 10.86Q34.40 9.97 36.32 9.97L36.32 9.97L36.32 9.97Q37.60 9.97 38.30 10.19L38.30 10.19L38.30 10.19Q39.00 10.40 39.30 10.91L39.30 10.91L39.30 10.91Q39.61 11.42 39.61 12.35L39.61 12.35L39.61 12.35Q39.61 13.20 39.21 13.71L39.21 13.71L39.21 13.71Q38.82 14.21 37.96 14.43L37.96 14.43L37.96 14.43Q37.10 14.66 35.62 14.66L35.62 14.66L35.62 15.29L35.62 15.29Q35.91 15.34 36.60 15.34L36.60 15.34ZM36.58 12.00L36.58 12.00Q36.04 12.00 35.83 12.11L35.83 12.11L35.83 12.11Q35.62 12.22 35.62 12.53L35.62 12.53L35.62 13.26L36.12 13.26L36.12 13.26Q36.67 13.26 36.88 13.13L36.88 13.13L36.88 13.13Q37.09 13.01 37.09 12.67L37.09 12.67L37.09 12.00L36.58 12.00ZM44.77 15.68L40.31 15.68L40.31 14.01L42.60 8.43L47.57 8.43L47.57 13.37L48.52 13.37L48.52 15.68L47.57 15.68L47.57 17.18L44.77 17.18L44.77 15.68ZM43.22 13.37L44.77 13.37L44.77 10.53L44.38 10.53L43.22 13.37ZM53.00 9.97L53.00 9.97Q54.67 9.97 55.45 10.56L55.45 10.56L55.45 10.56Q56.22 11.14 56.22 12.42L56.22 12.42L56.22 17.18L54.82 17.18L54.12 16.48L54.12 16.48Q53.59 16.93 52.98 17.16L52.98 17.16L52.98 17.16Q52.37 17.39 51.74 17.39L51.74 17.39L51.74 17.39Q50.47 17.39 49.88 16.81L49.88 16.81L49.88 16.81Q49.29 16.24 49.29 15.01L49.29 15.01L49.29 15.01Q49.29 14.15 49.66 13.65L49.66 13.65L49.66 13.65Q50.02 13.15 50.83 12.92L50.83 12.92L50.83 12.92Q51.63 12.70 53.00 12.70L53.00 12.70L53.42 12.70L53.42 12.07L53.42 12.07Q53.21 12.01 52.72 12.01L52.72 12.01L52.72 12.01Q51.42 12.01 49.95 12.38L49.95 12.38L49.62 10.44L49.62 10.44Q51.18 9.97 53.00 9.97L53.00 9.97ZM52.46 15.50L52.46 15.50Q53.00 15.50 53.21 15.39L53.21 15.39L53.21 15.39Q53.42 15.27 53.42 14.97L53.42 14.97L53.42 14.10L52.84 14.10L52.84 14.10Q52.29 14.10 52.08 14.22L52.08 14.22L52.08 14.22Q51.87 14.35 51.87 14.69L51.87 14.69L51.87 15.50L52.46 15.50ZM60.35 15.18L60.35 15.18Q60.72 15.25 61.04 15.27L61.04 15.27L60.91 17.16L60.91 17.16Q60.02 17.39 59.36 17.39L59.36 17.39L59.36 17.39Q58.44 17.39 57.99 17.02L57.99 17.02L57.99 17.02Q57.55 16.65 57.55 15.86L57.55 15.86L57.55 8.08L60.35 7.87L60.35 15.18ZM64.68 15.18L64.68 15.18Q65.04 15.25 65.37 15.27L65.37 15.27L65.24 17.16L65.24 17.16Q64.34 17.39 63.69 17.39L63.69 17.39L63.69 17.39Q62.76 17.39 62.32 17.02L62.32 17.02L62.32 17.02Q61.88 16.65 61.88 15.86L61.88 15.86L61.88 8.08L64.68 7.87L64.68 15.18Z"></path></g><!----><g data-v-423bf9ae="" id="78ffa273-58fc-4da3-abfa-6f673de29660" transform="matrix(1.5833644508072333,0,0,1.5833644508072333,101.83177745963833,-33.589004803912914)" stroke="none" fill="black"><path d="M68.984 60.346c-4.03 0-7.559 2.633-9.499 6.57-1.229-.947-2.684-1.498-4.242-1.498-1.827 0-3.511.754-4.855 2.02-1.739-2.738-4.454-4.504-7.507-4.504a7.948 7.948 0 0 0-3.345.744 3.357 3.357 0 0 0-2.871-1.617 3.366 3.366 0 0 0-3.367 3.365c0 1.205.638 2.26 1.591 2.855a12.699 12.699 0 0 0-.829 1.965 5.393 5.393 0 0 0-.747.594c-1.199-1.891-3.075-3.109-5.182-3.109-3.62 0-6.558 3.59-6.558 8.018 0 1.479.979 2.672 2.187 2.672h8.741c.088 0 .174-.008.259-.02.076.012.154.02.234.02h16.219c.128 0 .251-.012.374-.027a2.4 2.4 0 0 0 .341.027H60.56c.163 0 .325-.02.481-.055.183.033.365.055.554.055h14.779c2.042 0 3.697-2.021 3.697-4.518 0-7.485-4.967-13.557-11.087-13.557z"></path><circle cx="68.984" cy="52.255" r="6.778"></circle><circle cx="42.881" cy="56.001" r="5.808"></circle><circle cx="55.243" cy="59.597" r="4.876"></circle><circle cx="28.131" cy="62.943" r="4.01"></circle><path d="M10 21.58v45h12.254a6.938 6.938 0 0 1-1.131-3.777c0-3.865 3.144-7.01 7.008-7.01a7.01 7.01 0 0 1 6.12 3.604c.161-.066.326-.123.493-.176a8.766 8.766 0 0 1-.669-3.361c0-4.855 3.95-8.807 8.806-8.807 3.765 0 6.977 2.379 8.234 5.709a7.807 7.807 0 0 1 8.12-.084c-.011-.188-.028-.373-.028-.564 0-5.391 4.386-9.777 9.777-9.777s9.777 4.387 9.777 9.777a9.75 9.75 0 0 1-3.066 7.094c2.59 1.656 4.684 4.244 5.972 7.373H90v-45H10zm76 41h-1.839a19.946 19.946 0 0 0-3.007-4.036 13.762 13.762 0 0 0 1.608-6.431c0-7.597-6.181-13.777-13.777-13.777-6.018 0-11.146 3.878-13.019 9.267a11.765 11.765 0 0 0-3.13.227c-2.395-2.955-6.044-4.776-9.955-4.776-5.748 0-10.624 3.807-12.238 9.032a10.937 10.937 0 0 0-2.512-.292c-5.995 0-10.887 4.819-11.005 10.787H14v-37h72V62.58z"></path></g><!----></svg>